<svg xmlns="http://www.w3.org/2000/svg" viewBox="0 0 339 428" width="339" height="428">
  <path d="M 338.0,387.5 L 272.5,387.0 L 272.5,227.0 L 223.0,226.5 L 213.0,230.5 L 193.0,229.5 L 183.0,225.5 L 169.5,215.0 L 162.5,205.0 L 159.5,199.0 L 157.5,191.0 L 158.5,170.0 L 168.5,149.0 L 176.5,139.0 L 186.0,130.5 L 198.0,123.5 L 208.0,120.5 L 226.0,120.5 L 230.0,121.5 L 241.0,126.5 L 248.0,131.5 L 255.5,139.0 L 262.5,151.0 L 264.5,159.0 L 264.5,174.0 L 263.5,177.0 L 305.0,209.5 L 310.5,197.0 L 313.5,183.0 L 312.5,155.0 L 308.5,141.0 L 301.5,126.0 L 288.5,109.0 L 281.0,101.5 L 264.0,88.5 L 246.0,79.5 L 222.0,73.5 L 195.0,74.5 L 178.0,79.5 L 165.0,86.5 L 163.5,86.0 L 163.5,1.0 L 338.0,0.5 Z" fill="#6FB8CE" fill-rule="evenodd"/>
  <path d="M 87.0,155.5 L 72.0,155.5 L 62.0,152.5 L 53.5,146.0 L 50.5,142.0 L 46.5,132.0 L 45.5,127.0 L 46.0,0.5 L 114.5,1.0 L 114.5,127.0 L 111.5,138.0 L 108.5,143.0 L 101.0,150.5 L 95.0,153.5 L 87.0,155.5 Z M 0.0,145.5 L 2.5,154.0 L 8.5,166.0 L 23.5,183.0 L 31.0,188.5 L 46.0,195.5 L 67.0,200.5 L 91.0,200.5 L 111.0,195.5 L 117.5,216.0 L 124.5,229.0 L 135.5,243.0 L 153.0,258.5 L 167.0,267.5 L 187.0,275.5 L 203.0,278.5 L 223.5,278.0 L 223.0,424.5 L 0.0,424.5 Z" fill="#2F408E" fill-rule="evenodd"/>
</svg>